<svg width="2384" height="343" xmlns="http://www.w3.org/2000/svg" xmlns:xlink="http://www.w3.org/1999/xlink" xml:space="preserve" overflow="hidden"><defs><clipPath id="clip0"><rect x="281" y="29" width="2384" height="343"/></clipPath></defs><g clip-path="url(#clip0)" transform="translate(-281 -29)"><path d="M281 202C281 184.879 294.879 171 311.999 171L2634 171C2651.12 171 2665 184.879 2665 202L2665 202C2665 219.121 2651.12 233 2634 233L311.999 233C294.879 233 281 219.121 281 202Z" fill="#EEEEEE" fill-rule="evenodd"/><path d="M921 200.5C921 105.783 997.783 28.9999 1092.5 28.9999L1133.5 28.9999C1228.22 28.9999 1305 105.783 1305 200.5L1305 200.5C1305 295.217 1228.22 372 1133.5 372L1092.5 372C997.783 372 921 295.217 921 200.5Z" fill="#FFE893" fill-rule="evenodd"/><path d="M1645 200.5C1645 105.783 1721.78 28.9999 1816.5 28.9999L1857.5 28.9999C1952.22 28.9999 2029 105.783 2029 200.5L2029 200.5C2029 295.217 1952.22 372.001 1857.5 372.001L1816.5 372C1721.78 372 1645 295.217 1645 200.5Z" fill="#FFE893" fill-rule="evenodd"/><rect x="1167" y="65" width="588" height="271" fill="#FFE893"/></g></svg>