<svg width="2384" height="343" xmlns="http://www.w3.org/2000/svg" xmlns:xlink="http://www.w3.org/1999/xlink" xml:space="preserve" overflow="hidden"><defs><clipPath id="clip0"><rect x="281" y="441" width="2384" height="343"/></clipPath></defs><g clip-path="url(#clip0)" transform="translate(-281 -441)"><path d="M281 613.5C281 596.655 294.655 583 311.499 583L2634.5 583C2651.35 583 2665 596.655 2665 613.5L2665 613.5C2665 630.345 2651.35 644 2634.5 644L311.499 644C294.655 644 281 630.345 281 613.5Z" fill="#EEEEEE" fill-rule="evenodd"/><path d="M921 612.5C921 517.783 997.783 441 1092.5 441L1133.5 441C1228.22 441 1305 517.783 1305 612.5L1305 612.5C1305 707.217 1228.22 784 1133.5 784L1092.5 784C997.783 784 921 707.217 921 612.5Z" fill="#FFD126" fill-rule="evenodd"/><path d="M1645 612.5C1645 517.783 1721.78 441 1816.5 441L1857.5 441C1952.22 441 2029 517.783 2029 612.5L2029 612.5C2029 707.218 1952.22 784.001 1857.5 784.001L1816.5 784C1721.78 784 1645 707.217 1645 612.5Z" fill="#FFD126" fill-rule="evenodd"/><rect x="1167" y="476" width="588" height="272" fill="#FFD126"/></g></svg>