<svg width="2384" height="343" xmlns="http://www.w3.org/2000/svg" xmlns:xlink="http://www.w3.org/1999/xlink" xml:space="preserve" overflow="hidden"><defs><clipPath id="clip0"><rect x="281" y="34" width="2384" height="343"/></clipPath></defs><g clip-path="url(#clip0)" transform="translate(-281 -34)"><path d="M281 206.5C281 189.655 294.655 176 311.499 176L2634.5 176C2651.35 176 2665 189.655 2665 206.5L2665 206.5C2665 223.345 2651.35 237 2634.5 237L311.499 237C294.655 237 281 223.345 281 206.5Z" fill="#EEEEEE" fill-rule="evenodd"/><path d="M921 205.5C921 110.783 997.783 34 1092.5 34L1133.5 34C1228.22 34 1305 110.783 1305 205.5L1305 205.5C1305 300.217 1228.22 377 1133.5 377L1092.5 377C997.783 377 921 300.217 921 205.5Z" fill="#FFD126" fill-rule="evenodd"/><path d="M1091.81 34 1111 34 1111 377 1091.81 377C1080.02 377 1068.51 375.8 1057.38 373.516L1037 367.164 1037 43.8366 1057.38 37.4843C1068.51 35.1999 1080.02 34 1091.81 34Z" fill="#7F6000" fill-rule="evenodd" fill-opacity="0.329412"/><path d="M1645 205.5C1645 110.783 1721.78 34 1816.5 34L1857.5 34C1952.22 34 2029 110.783 2029 205.5L2029 205.5C2029 300.218 1952.22 377.001 1857.5 377.001L1816.5 377.001C1721.78 377.001 1645 300.217 1645 205.5Z" fill="#FFD126" fill-rule="evenodd"/><path d="M1816.12 34 1844 34 1844 377 1816.12 377C1804.2 377 1792.57 375.8 1781.33 373.516L1772 370.639 1772 40.3613 1781.33 37.4843C1792.57 35.1999 1804.2 34 1816.12 34Z" fill="#7F6000" fill-rule="evenodd" fill-opacity="0.329412"/><rect x="1167" y="69.0001" width="588" height="272" fill="#FFD126"/><rect x="1239" y="69.0001" width="73.0002" height="272" fill="#7F6000" fill-opacity="0.329412"/><rect x="1369" y="69.0001" width="71.9999" height="272" fill="#7F6000" fill-opacity="0.329412"/><rect x="1498" y="69.0001" width="71.9999" height="272" fill="#7F6000" fill-opacity="0.329412"/></g></svg>