<svg width="2384" height="343" xmlns="http://www.w3.org/2000/svg" xmlns:xlink="http://www.w3.org/1999/xlink" xml:space="preserve" overflow="hidden"><defs><clipPath id="clip0"><rect x="281" y="805" width="2384" height="343"/></clipPath></defs><g clip-path="url(#clip0)" transform="translate(-281 -805)"><path d="M281 978C281 960.879 294.879 947 311.999 947L2634 947C2651.12 947 2665 960.879 2665 978L2665 978C2665 995.121 2651.12 1009 2634 1009L311.999 1009C294.879 1009 281 995.121 281 978Z" fill="#EEEEEE" fill-rule="evenodd"/><path d="M921 976.5C921 881.783 997.783 805 1092.5 805L1133.5 805C1228.22 805 1305 881.783 1305 976.5L1305 976.5C1305 1071.22 1228.22 1148 1133.5 1148L1092.5 1148C997.783 1148 921 1071.22 921 976.5Z" fill="#FFD126" fill-rule="evenodd"/><path d="M1645 976.5C1645 881.783 1721.78 805 1816.5 805L1857.5 805C1952.22 805 2029 881.783 2029 976.5L2029 976.5C2029 1071.22 1952.22 1148 1857.5 1148L1816.5 1148C1721.78 1148 1645 1071.22 1645 976.5Z" fill="#FFD126" fill-rule="evenodd"/><rect x="1167" y="841" width="588" height="271" fill="#FFD126"/><rect x="1076" y="805" width="73.9999" height="343" fill="#7F6000" fill-opacity="0.329412"/><rect x="1801" y="805" width="71.0001" height="343" fill="#7F6000" fill-opacity="0.329412"/><rect x="1239" y="841" width="73.0002" height="271" fill="#7F6000" fill-opacity="0.329412"/><rect x="1369" y="841" width="71.9999" height="271" fill="#7F6000" fill-opacity="0.329412"/><rect x="1498" y="841" width="71.9999" height="271" fill="#7F6000" fill-opacity="0.329412"/></g></svg>